<svg width="48" height="48" viewBox="0 0 48 48" fill="none" xmlns="http://www.w3.org/2000/svg">
<path d="M48 24C48 10.7452 37.2548 0 24 0C10.7452 0 0 10.7452 0 24C0 37.2548 10.7452 48 24 48C37.2548 48 48 37.2548 48 24Z" fill="#C0257D"/>
<path fill-rule="evenodd" clip-rule="evenodd" d="M16 12H32C34.2091 12 36 13.7909 36 16V32C36 34.2091 34.2091 36 32 36H16C13.7909 36 12 34.2091 12 32V16C12 13.7909 13.7909 12 16 12ZM24 18C20.6916 18 18 20.6916 18 24C18 27.3083 20.6916 29.9997 24 29.9997C27.3084 29.9997 30 27.3083 30 24C30 20.6916 27.3084 18 24 18ZM31.5 15C30.6716 15 30 15.6716 30 16.5C30 17.3284 30.6716 18 31.5 18C32.3284 18 33 17.3284 33 16.5C33 15.6716 32.3284 15 31.5 15Z" fill="white"/>
<path d="M27 24C27 22.3431 25.6569 21 24 21C22.3431 21 21 22.3431 21 24C21 25.6569 22.3431 27 24 27C25.6569 27 27 25.6569 27 24Z" fill="white"/>
</svg>
