<svg width="17" height="25" viewBox="0 0 17 25" fill="none" xmlns="http://www.w3.org/2000/svg">
<path d="M16.2475 0.699897V0.697314C15.7687 0.251227 15.1178 0.000258264 14.4389 0H2.55836C1.14729 0.00426136 0.00459836 1.06321 0 2.37087V22.6265C0.000278689 23.2557 0.271094 23.8589 0.752459 24.3027C1.23062 24.7481 1.88038 24.999 2.55836 25H14.4416C15.1196 24.999 15.7694 24.7481 16.2475 24.3027C16.7282 23.8596 16.999 23.2574 17 22.6291V2.37345C16.999 1.74516 16.7282 1.14301 16.2475 0.699897ZM8.5 23.391C8.11827 23.391 7.80885 23.1043 7.80885 22.7505C7.80885 22.3968 8.11827 22.11 8.5 22.11C8.88173 22.11 9.19115 22.3968 9.19115 22.7505C9.19115 23.1043 8.88173 23.391 8.5 23.391ZM14.9684 19.3698C14.9684 20.2257 14.2197 20.9194 13.2962 20.9194H3.70098C2.77748 20.9194 2.02885 20.2257 2.02885 19.3698V4.27428C2.02885 3.41845 2.77748 2.72469 3.70098 2.72469H13.299C14.2225 2.72469 14.9711 3.41845 14.9711 4.27428L14.9684 19.3698Z" fill="#D51B51"/>
</svg>
