<svg width="195" height="116" viewBox="0 0 195 116" fill="none" xmlns="http://www.w3.org/2000/svg">
<path d="M184.928 12.56C184.92 12.4752 184.907 12.3908 184.889 12.3072C184.891 12.2784 184.891 12.2496 184.889 12.2208C184.767 11.8524 184.579 11.51 184.334 11.2096C184.315 11.1872 184.315 11.1552 184.296 11.1328C184.277 11.1104 184.184 11.0624 184.14 11.0144C183.913 10.7724 183.649 10.5684 183.358 10.4096C183.262 10.3532 183.163 10.302 183.061 10.256C182.674 10.09 182.258 10.0028 181.836 10H41.4715C41.1245 10.0032 40.7804 10.0648 40.4538 10.1824C40.3537 10.222 40.2556 10.2668 40.1603 10.3168C39.9498 10.4116 39.75 10.5284 39.5638 10.6656C39.4685 10.7384 39.378 10.8176 39.2926 10.9024C39.1335 11.056 38.99 11.2252 38.8651 11.408C38.7934 11.5112 38.7276 11.618 38.6674 11.728C38.6355 11.7888 38.5876 11.8368 38.5589 11.9008C38.4931 12.0728 38.4429 12.2508 38.409 12.432C38.3898 12.5056 38.3452 12.5664 38.3324 12.6432L22.3818 102.243C22.3786 102.305 22.3786 102.367 22.3818 102.429C22.3416 102.767 22.3559 103.11 22.4233 103.443C22.4233 103.523 22.4233 103.603 22.4584 103.683C22.4584 103.715 22.4584 103.747 22.4743 103.779C22.5972 104.145 22.785 104.486 23.0294 104.784C23.0486 104.806 23.0518 104.838 23.0677 104.861C23.0837 104.883 23.1794 104.931 23.224 104.979C23.4509 105.22 23.7149 105.423 24.0056 105.581C24.1017 105.64 24.2018 105.692 24.3055 105.738C24.6891 105.905 25.1026 105.994 25.5209 106H165.886C166.24 105.997 166.592 105.934 166.926 105.814C167.035 105.77 167.142 105.718 167.245 105.661C167.453 105.568 167.651 105.453 167.835 105.318C167.936 105.232 168.031 105.139 168.119 105.04C168.268 104.894 168.403 104.735 168.521 104.563C168.598 104.44 168.668 104.313 168.731 104.182C168.776 104.083 168.849 104.003 168.885 103.901C168.912 103.796 168.934 103.689 168.948 103.581C168.981 103.507 169.009 103.431 169.031 103.354L184.982 13.7536C184.985 13.6916 184.985 13.63 184.982 13.568C185.018 13.2312 185 12.8908 184.928 12.56ZM171.759 16.4L96.1883 69.744L48.6078 16.4H171.759ZM43.4621 20.24L79.4338 60.56L30.0317 95.6736L43.4621 20.24ZM35.5442 99.6L83.715 65.36L93.3204 76.128C94.4002 77.3372 96.2118 77.5436 97.5345 76.608L115.431 63.9776L157.206 99.6H35.5442ZM163.72 96.7552L120.826 60.1792L177.335 20.2912L163.72 96.7552Z" fill="#E8E8E8"/>
<path d="M3.19011 19.6H28.711C30.4728 19.6 31.9011 18.1672 31.9011 16.4C31.9011 14.6328 30.4728 13.2 28.711 13.2H3.19011C1.42837 13.2 0 14.6328 0 16.4C0 18.1672 1.42837 19.6 3.19011 19.6Z" fill="#E8E8E8"/>
<path d="M25.5209 35.6C25.5209 33.8328 24.0925 32.4 22.3308 32.4H3.19011C1.42837 32.4 0 33.8328 0 35.6C0 37.3672 1.42837 38.8 3.19011 38.8H22.3308C24.0925 38.8 25.5209 37.3672 25.5209 35.6Z" fill="#E8E8E8"/>
<path d="M15.9506 51.6H3.19011C1.42837 51.6 0 53.0328 0 54.8C0 56.5672 1.42837 58 3.19011 58H15.9506C17.7123 58 19.1407 56.5672 19.1407 54.8C19.1407 53.0328 17.7123 51.6 15.9506 51.6Z" fill="#E8E8E8"/>
<path d="M9.57034 70.8H3.19011C1.42837 70.8 0 72.2328 0 74C0 75.7672 1.42837 77.2 3.19011 77.2H9.57034C11.3321 77.2 12.7605 75.7672 12.7605 74C12.7605 72.2328 11.3321 70.8 9.57034 70.8Z" fill="#E8E8E8"/>
</svg>
