<svg width="48" height="48" viewBox="0 0 48 48" fill="none" xmlns="http://www.w3.org/2000/svg">
<path d="M48 24C48 10.7452 37.2548 0 24 0C10.7452 0 0 10.7452 0 24C0 37.2548 10.7452 48 24 48C37.2548 48 48 37.2548 48 24Z" fill="#5B7697"/>
<path d="M32.6554 26.9018C33.4515 27.703 34.2918 28.4568 35.0058 29.3388C35.3212 29.7308 35.6199 30.1352 35.8483 30.5901C36.172 31.2367 35.8788 31.9482 35.3163 31.9868L31.82 31.9852C30.9182 32.0623 30.1988 31.6881 29.5939 31.0526C29.1098 30.5443 28.6615 30.0034 28.1961 29.478C28.0052 29.2632 27.8055 29.0612 27.5669 28.9015C27.0896 28.5821 26.6753 28.6799 26.4025 29.193C26.1247 29.7149 26.0617 30.2928 26.0344 30.8745C25.997 31.7232 25.7481 31.9463 24.9211 31.9851C23.1537 32.071 21.4763 31.7954 19.9181 30.8764C18.5443 30.0661 17.4789 28.9223 16.5517 27.6274C14.7463 25.106 13.3638 22.3353 12.1212 19.4871C11.8415 18.8453 12.0461 18.5009 12.733 18.4887C13.8736 18.4658 15.014 18.4675 16.156 18.487C16.6196 18.494 16.9265 18.7681 17.1055 19.2196C17.7226 20.7837 18.4777 22.2718 19.4255 23.6511C19.6779 24.0184 19.9353 24.3856 20.3018 24.6441C20.7073 24.9303 21.016 24.8354 21.2068 24.3698C21.3278 24.0746 21.3808 23.7566 21.4081 23.4404C21.4984 22.3526 21.5104 21.2667 21.3519 20.1827C21.2545 19.5062 20.8849 19.0683 20.23 18.9403C19.8958 18.875 19.9456 18.7468 20.1074 18.5502C20.3884 18.2111 20.6527 18 21.1796 18H25.1311C25.7532 18.1266 25.8913 18.4146 25.9765 19.0598L25.9799 23.5842C25.9731 23.834 26.1009 24.5752 26.5374 24.7406C26.8867 24.8582 27.117 24.5702 27.3265 24.3419C28.2726 23.3068 28.9479 22.0836 29.5511 20.817C29.8188 20.26 30.049 19.6816 30.2721 19.1037C30.4373 18.6749 30.6967 18.4639 31.1653 18.4732L34.9684 18.4767C35.0811 18.4767 35.1952 18.4784 35.3044 18.4977C35.9453 18.6103 36.1209 18.8944 35.923 19.5395C35.6111 20.5515 35.0043 21.3949 34.411 22.2422C33.7768 23.1468 33.0985 24.0204 32.4696 24.9303C31.8917 25.7613 31.9376 26.1801 32.6554 26.9018Z" fill="white"/>
</svg>
