<svg width="76" height="61" viewBox="0 0 76 61" fill="none" xmlns="http://www.w3.org/2000/svg">
<path d="M61 15.5C61 16.9587 60.4205 18.3576 59.3891 19.3891C58.3576 20.4205 56.9587 21 55.5 21C54.0413 21 52.6424 20.4205 51.6109 19.3891C50.5795 18.3576 50 16.9587 50 15.5C50 14.0413 50.5795 12.6424 51.6109 11.6109C52.6424 10.5795 54.0413 10 55.5 10C56.9587 10 58.3576 10.5795 59.3891 11.6109C60.4205 12.6424 61 14.0413 61 15.5ZM38.347 37.186C37.0198 38.0153 35.5424 38.5753 33.999 38.834L34 39C34 45.627 28.627 51 22 51C15.373 51 10 45.627 10 39C10 33.054 14.325 28.117 20.001 27.166L20 27C20 20.373 25.373 15 32 15C37.975 15 42.93 19.367 43.848 25.084C45.2943 24.3686 46.8865 23.9976 48.5 24C54.299 24 59 28.701 59 34.5C59 34.75 58.991 35 58.974 35.245C59.207 35.305 59.436 35.374 59.661 35.453C59.9575 35.0418 60.3399 34.6999 60.7815 34.451C61.2232 34.202 61.7137 34.0521 62.2191 34.0114C62.7244 33.9707 63.2326 34.0403 63.7084 34.2153C64.1842 34.3904 64.6163 34.6667 64.9748 35.0252C65.3333 35.3837 65.6096 35.8158 65.7847 36.2916C65.9597 36.7674 66.0293 37.2756 65.9886 37.7809C65.9479 38.2863 65.798 38.7768 65.549 39.2185C65.3001 39.6601 64.9582 40.0425 64.547 40.339C64.8976 41.3563 65.0394 42.4339 64.9639 43.5072C64.8884 44.5806 64.5971 45.6277 64.1075 46.5859C63.6179 47.5441 62.9401 48.3937 62.1145 49.0838C61.2889 49.7739 60.3326 50.2904 59.3028 50.6023C58.273 50.9142 57.1908 51.0152 56.1211 50.8992C55.0513 50.7832 54.016 50.4525 53.077 49.9271C52.138 49.4016 51.3146 48.6921 50.6562 47.8411C49.9978 46.99 49.5178 46.0149 49.245 44.974C48.999 44.991 48.751 45 48.5 45C43.63 45 39.533 41.684 38.347 37.186ZM18 21.5C18 22.4283 17.6313 23.3185 16.9749 23.9749C16.3185 24.6313 15.4283 25 14.5 25C13.5717 25 12.6815 24.6313 12.0251 23.9749C11.3687 23.3185 11 22.4283 11 21.5C11 20.5717 11.3687 19.6815 12.0251 19.0251C12.6815 18.3687 13.5717 18 14.5 18C15.4283 18 16.3185 18.3687 16.9749 19.0251C17.6313 19.6815 18 20.5717 18 21.5Z" fill="#FFC9DF"/>
<path d="M66.0333 22.6833H46.7V14.8645C46.699 14.4095 46.5937 13.9609 46.3924 13.5539C46.1912 13.1469 45.8994 12.7926 45.54 12.5187L41.6734 9.58645C41.2425 9.25972 40.7302 9.06075 40.1938 9.01185C39.6574 8.96295 39.1181 9.06604 38.6364 9.30957C38.1547 9.5531 37.7496 9.92746 37.4665 10.3907C37.1833 10.8539 37.0334 11.3877 37.0334 11.9323V23.5514C34.2236 19.4763 29.6384 16.8163 24.4667 16.8163C15.9383 16.8163 9.00004 24.0502 9.00004 32.942C8.99241 36.2532 9.97522 39.4895 11.8194 42.2258H9.96671C9.71033 42.2258 9.46446 42.3288 9.28317 42.5121C9.10189 42.6954 9.00004 42.944 9.00004 43.2032V49.0677C9.00091 49.8451 9.30672 50.5905 9.85039 51.1402C10.3941 51.6899 11.1312 51.9991 11.9 52H66.0333C66.2897 52 66.5356 51.897 66.7169 51.7137C66.8982 51.5304 67 51.2818 67 51.0226V23.6607C67 23.4015 66.8982 23.1529 66.7169 22.9696C66.5356 22.7863 66.2897 22.6833 66.0333 22.6833ZM65.0667 24.6382V26.593H46.7V24.6382H65.0667ZM49.6 32.4515C49.9824 32.4515 50.3562 32.5662 50.6741 32.781C50.9921 32.9958 51.2399 33.3011 51.3862 33.6583C51.5325 34.0155 51.5708 34.4086 51.4962 34.7878C51.4216 35.167 51.2375 35.5153 50.9671 35.7887C50.6967 36.0621 50.3522 36.2482 49.9772 36.3237C49.6022 36.3991 49.2134 36.3604 48.8602 36.2124C48.5069 36.0645 48.2049 35.8139 47.9925 35.4924C47.7801 35.171 47.6667 34.793 47.6667 34.4064C47.6673 33.8881 47.8711 33.3912 48.2336 33.0247C48.596 32.6583 49.0874 32.4521 49.6 32.4515ZM38.9667 42.2258H37.114C38.6813 39.9031 39.6302 37.2113 39.8693 34.4099L45.7333 34.4083V49.0713C45.7331 49.3271 45.6337 49.5727 45.4564 49.7552C45.2791 49.9378 45.038 50.0427 44.785 50.0476H39.766C39.8768 49.7331 39.9334 49.4016 39.9334 49.0677V43.2032C39.9334 42.944 39.8315 42.6954 39.6502 42.5121C39.4689 42.3288 39.2231 42.2258 38.9667 42.2258ZM44.9786 30.4985L45.462 32.4534L39.9257 32.4551C39.9073 31.8002 39.8506 31.1469 39.756 30.4988L44.9786 30.4985ZM39.5009 11.0586C39.6609 10.9753 39.8411 10.9398 40.0204 10.9561C40.1996 10.9724 40.3706 11.04 40.5134 11.1508L44.38 14.0831C44.4998 14.1744 44.5971 14.2925 44.6642 14.4281C44.7312 14.5638 44.7663 14.7133 44.7667 14.865V20.7255H38.9667V11.9326C38.9646 11.7507 39.0138 11.572 39.1084 11.4172C39.2029 11.2625 39.3391 11.1381 39.5009 11.0586ZM38.9667 22.6799H44.7667V28.5437H39.3485C39.2365 28.1324 39.1092 27.7279 38.9667 27.3303V22.6799ZM10.9334 32.942C10.9334 25.1282 17.0044 18.7712 24.4667 18.7712C31.929 18.7712 38 25.1282 38 32.942C38.0112 36.3339 36.8393 39.6212 34.6903 42.2258H30.8709C32.9492 40.8342 34.5289 38.8027 35.376 36.4322C36.2231 34.0617 36.2924 31.4784 35.5738 29.065C34.8552 26.6515 33.3867 24.5364 31.3861 23.0328C29.3855 21.5293 26.9591 20.7174 24.4663 20.7174C21.9736 20.7174 19.5472 21.5293 17.5466 23.0328C15.5459 24.5364 14.0775 26.6515 13.3589 29.065C12.6402 31.4784 12.7096 34.0617 13.5567 36.4322C14.4037 38.8027 15.9835 40.8342 18.0618 42.2258H14.2431C12.0941 39.6212 10.9222 36.3339 10.9334 32.942ZM21.5667 44.1806H27.3667V45.158C27.3664 45.4172 27.2645 45.6656 27.0833 45.8489C26.902 46.0321 26.6563 46.1352 26.4 46.1355H22.5334C22.2771 46.1352 22.0314 46.0321 21.8502 45.8489C21.6689 45.6656 21.567 45.4172 21.5667 45.158V44.1806ZM24.4667 42.2258C22.5548 42.2258 20.6859 41.6525 19.0962 40.5785C17.5065 39.5045 16.2675 37.978 15.5359 36.192C14.8042 34.406 14.6128 32.4407 14.9858 30.5447C15.3588 28.6487 16.2794 26.9071 17.6313 25.5401C18.9832 24.1732 20.7057 23.2423 22.5808 22.8651C24.456 22.488 26.3996 22.6816 28.166 23.4213C29.9323 24.1611 31.442 25.4139 32.5042 27.0213C33.5664 28.6286 34.1334 30.5184 34.1334 32.4515C34.1304 35.0429 33.1111 37.5273 31.2988 39.3597C29.4866 41.1921 27.0296 42.2228 24.4667 42.2258ZM10.9334 49.0677V44.1806H19.6334V45.158C19.6342 45.9355 19.94 46.6808 20.4837 47.2305C21.0274 47.7802 21.7645 48.0894 22.5334 48.0903H26.4C27.1689 48.0894 27.906 47.7802 28.4497 47.2305C28.9934 46.6808 29.2992 45.9355 29.3 45.158V44.1806H38V49.0677C37.9997 49.3269 37.8978 49.5753 37.7166 49.7585C37.5354 49.9418 37.2896 50.0449 37.0334 50.0452H11.9C11.6438 50.0449 11.398 49.9418 11.2168 49.7585C11.0356 49.5753 10.9337 49.3269 10.9334 49.0677ZM47.5009 50.0475C47.6107 49.734 47.6668 49.4038 47.6667 49.0713V47.5643C48.2544 47.9083 48.9214 48.0897 49.6005 48.0903C50.2796 48.0909 50.9469 47.9106 51.5352 47.5676C52.1235 47.2246 52.6121 46.731 52.9518 46.1364C53.2915 45.5418 53.4704 44.8673 53.4704 44.1806C53.4704 43.494 53.2915 42.8194 52.9518 42.2248C52.6121 41.6303 52.1235 41.1366 51.5352 40.7936C50.9469 40.4506 50.2796 40.2704 49.6005 40.2709C48.9214 40.2715 48.2544 40.4529 47.6667 40.7969V37.7901C48.276 38.1467 48.9699 38.3283 49.6738 38.3153C50.3776 38.3024 51.0646 38.0955 51.6607 37.7168C52.2568 37.3381 52.7393 36.8021 53.0562 36.1665C53.3732 35.5309 53.5125 34.8199 53.4591 34.1101C53.4058 33.4004 53.1619 32.7188 52.7536 32.1389C52.3454 31.5591 51.7883 31.1029 51.1425 30.8196C50.4967 30.5363 49.7866 30.4367 49.0889 30.5314C48.3912 30.6261 47.7324 30.9117 47.1833 31.3572L46.7 29.4006V28.5474H65.0667V50.0453L47.5009 50.0475ZM47.6667 44.1806C47.6667 43.794 47.7801 43.416 47.9925 43.0946C48.2049 42.7731 48.5069 42.5225 48.8602 42.3746C49.2134 42.2266 49.6022 42.1879 49.9772 42.2633C50.3522 42.3388 50.6967 42.5249 50.9671 42.7983C51.2375 43.0717 51.4216 43.42 51.4962 43.7992C51.5708 44.1784 51.5325 44.5715 51.3862 44.9287C51.2399 45.2859 50.9921 45.5912 50.6741 45.806C50.3562 46.0208 49.9824 46.1355 49.6 46.1355C49.0874 46.1349 48.596 45.9287 48.2336 45.5623C47.8711 45.1958 47.6673 44.6989 47.6667 44.1806Z" fill="black"/>
<path d="M59.2667 30.5003C58.5019 30.5003 57.7543 30.7296 57.1185 31.1592C56.4826 31.5888 55.987 32.1994 55.6943 32.9138C55.4017 33.6282 55.3251 34.4143 55.4743 35.1727C55.6235 35.9311 55.9917 36.6277 56.5325 37.1745C57.0733 37.7213 57.7622 38.0937 58.5123 38.2445C59.2624 38.3954 60.0398 38.318 60.7464 38.022C61.4529 37.7261 62.0568 37.225 62.4817 36.5821C62.9066 35.9391 63.1333 35.1832 63.1333 34.41C63.1322 33.3734 62.7244 32.3796 61.9995 31.6467C61.2746 30.9137 60.2918 30.5014 59.2667 30.5003ZM59.2667 36.3648C58.8843 36.3648 58.5105 36.2502 58.1926 36.0354C57.8746 35.8206 57.6268 35.5152 57.4805 35.158C57.3342 34.8008 57.2959 34.4078 57.3705 34.0286C57.4451 33.6494 57.6292 33.3011 57.8996 33.0277C58.17 32.7543 58.5145 32.5681 58.8895 32.4927C59.2645 32.4172 59.6532 32.456 60.0065 32.6039C60.3598 32.7519 60.6617 33.0024 60.8742 33.3239C61.0866 33.6454 61.2 34.0233 61.2 34.41C61.1994 34.9282 60.9955 35.4251 60.6331 35.7916C60.2706 36.158 59.7792 36.3642 59.2667 36.3648Z" fill="black"/>
<path d="M59.2667 40.2745C58.5019 40.2745 57.7543 40.5038 57.1185 40.9334C56.4826 41.363 55.987 41.9736 55.6943 42.688C55.4017 43.4024 55.3251 44.1885 55.4743 44.9469C55.6235 45.7053 55.9917 46.402 56.5325 46.9488C57.0733 47.4955 57.7622 47.8679 58.5123 48.0188C59.2624 48.1696 60.0398 48.0922 60.7464 47.7963C61.4529 47.5004 62.0568 46.9992 62.4817 46.3563C62.9066 45.7133 63.1333 44.9574 63.1333 44.1842C63.1322 43.1476 62.7244 42.1539 61.9995 41.4209C61.2746 40.6879 60.2918 40.2757 59.2667 40.2745ZM59.2667 46.139C58.8843 46.139 58.5105 46.0244 58.1926 45.8096C57.8746 45.5948 57.6268 45.2895 57.4805 44.9323C57.3342 44.5751 57.2959 44.182 57.3705 43.8028C57.4451 43.4236 57.6292 43.0753 57.8996 42.8019C58.17 42.5285 58.5145 42.3423 58.8895 42.2669C59.2645 42.1915 59.6532 42.2302 60.0065 42.3781C60.3598 42.5261 60.6617 42.7767 60.8742 43.0981C61.0866 43.4196 61.2 43.7976 61.2 44.1842C61.1994 44.7025 60.9955 45.1993 60.6331 45.5658C60.2706 45.9323 59.7792 46.1384 59.2667 46.139Z" fill="black"/>
</svg>
