<svg width="56" height="41" viewBox="0 0 56 41" fill="none" xmlns="http://www.w3.org/2000/svg">
<path d="M51 5.5C51 6.95869 50.4205 8.35764 49.3891 9.38909C48.3576 10.4205 46.9587 11 45.5 11C44.0413 11 42.6424 10.4205 41.6109 9.38909C40.5795 8.35764 40 6.95869 40 5.5C40 4.04131 40.5795 2.64236 41.6109 1.61091C42.6424 0.579462 44.0413 0 45.5 0C46.9587 0 48.3576 0.579462 49.3891 1.61091C50.4205 2.64236 51 4.04131 51 5.5ZM28.347 27.186C27.0198 28.0153 25.5424 28.5753 23.999 28.834L24 29C24 35.627 18.627 41 12 41C5.373 41 0 35.627 0 29C0 23.054 4.325 18.117 10.001 17.166L10 17C10 10.373 15.373 5 22 5C27.975 5 32.93 9.367 33.848 15.084C35.2943 14.3686 36.8865 13.9976 38.5 14C44.299 14 49 18.701 49 24.5C49 24.75 48.991 25 48.974 25.245C49.207 25.305 49.436 25.374 49.661 25.453C49.9575 25.0418 50.3399 24.6999 50.7815 24.451C51.2232 24.202 51.7137 24.0521 52.2191 24.0114C52.7244 23.9707 53.2326 24.0403 53.7084 24.2153C54.1842 24.3904 54.6163 24.6667 54.9748 25.0252C55.3333 25.3837 55.6096 25.8158 55.7847 26.2916C55.9597 26.7674 56.0293 27.2756 55.9886 27.7809C55.9479 28.2863 55.798 28.7768 55.549 29.2185C55.3001 29.6601 54.9582 30.0425 54.547 30.339C54.8976 31.3563 55.0394 32.4339 54.9639 33.5072C54.8884 34.5806 54.5971 35.6277 54.1075 36.5859C53.6179 37.5441 52.9401 38.3937 52.1145 39.0838C51.2889 39.7739 50.3326 40.2904 49.3028 40.6023C48.273 40.9142 47.1908 41.0152 46.1211 40.8992C45.0513 40.7832 44.016 40.4525 43.077 39.9271C42.138 39.4016 41.3146 38.6921 40.6562 37.8411C39.9978 36.99 39.5178 36.0149 39.245 34.974C38.999 34.991 38.751 35 38.5 35C33.63 35 29.533 31.684 28.347 27.186ZM8 11.5C8 12.4283 7.63125 13.3185 6.97487 13.9749C6.3185 14.6313 5.42826 15 4.5 15C3.57174 15 2.6815 14.6313 2.02513 13.9749C1.36875 13.3185 1 12.4283 1 11.5C1 10.5717 1.36875 9.6815 2.02513 9.02513C2.6815 8.36875 3.57174 8 4.5 8C5.42826 8 6.3185 8.36875 6.97487 9.02513C7.63125 9.6815 8 10.5717 8 11.5Z" fill="#FFC9DF"/>
<path d="M38.728 10.272C35.3281 6.87235 30.808 5 26 5C21.192 5 16.6719 6.87235 13.272 10.272C9.87235 13.6719 8 18.192 8 23C8 27.808 9.87235 32.3281 13.272 35.728C16.6719 39.1276 21.192 41 26 41C30.808 41 35.3281 39.1276 38.728 35.728C42.1276 32.3281 44 27.808 44 23C44 18.192 42.1276 13.6719 38.728 10.272ZM26 38.8906C17.2379 38.8906 10.1094 31.7621 10.1094 23C10.1094 14.2379 17.2379 7.10938 26 7.10938C34.7621 7.10938 41.8906 14.2379 41.8906 23C41.8906 31.7621 34.7621 38.8906 26 38.8906Z" fill="black"/>
<path d="M37.55 19.1182C37.4259 18.7364 37.0959 18.4581 36.6986 18.4004L29.9596 17.4212L26.9458 11.3146C26.7682 10.9546 26.4015 10.7267 26.0001 10.7267C25.5987 10.7267 25.232 10.9547 25.0543 11.3146L22.0406 17.4212L15.3015 18.4004C14.9043 18.4581 14.5742 18.7364 14.4502 19.1182C14.3261 19.5 14.4296 19.9192 14.717 20.1994L19.5934 24.9527L18.4423 31.6645C18.3744 32.0601 18.537 32.46 18.8618 32.696C19.1867 32.932 19.6172 32.9631 19.9725 32.7763L26 29.6075L32.0275 32.7763C32.1818 32.8574 32.3503 32.8975 32.5183 32.8975C32.7369 32.8975 32.9545 32.8295 33.1383 32.696C33.463 32.46 33.6257 32.0602 33.5578 31.6645L32.4067 24.9527L37.2831 20.1994C37.5706 19.9192 37.674 19.5001 37.55 19.1182ZM30.5373 23.8293C30.2887 24.0715 30.1753 24.4207 30.2339 24.7628L31.1176 29.9147L26.4908 27.4824C26.3372 27.4016 26.1685 27.3613 26 27.3613C25.8315 27.3613 25.6629 27.4016 25.5092 27.4824L20.8824 29.9148L21.7661 24.7629C21.8247 24.4207 21.7113 24.0716 21.4627 23.8293L17.7196 20.1807L22.8925 19.429C23.2359 19.3791 23.5329 19.1633 23.6866 18.852L26 14.1645L28.3134 18.852C28.467 19.1632 28.764 19.379 29.1075 19.429L34.2804 20.1806L30.5373 23.8293Z" fill="black"/>
</svg>
