<svg width="76" height="61" viewBox="0 0 76 61" fill="none" xmlns="http://www.w3.org/2000/svg">
<path d="M61 15.5C61 16.9587 60.4205 18.3576 59.3891 19.3891C58.3576 20.4205 56.9587 21 55.5 21C54.0413 21 52.6424 20.4205 51.6109 19.3891C50.5795 18.3576 50 16.9587 50 15.5C50 14.0413 50.5795 12.6424 51.6109 11.6109C52.6424 10.5795 54.0413 10 55.5 10C56.9587 10 58.3576 10.5795 59.3891 11.6109C60.4205 12.6424 61 14.0413 61 15.5ZM38.347 37.186C37.0198 38.0153 35.5424 38.5753 33.999 38.834L34 39C34 45.627 28.627 51 22 51C15.373 51 10 45.627 10 39C10 33.054 14.325 28.117 20.001 27.166L20 27C20 20.373 25.373 15 32 15C37.975 15 42.93 19.367 43.848 25.084C45.2943 24.3686 46.8865 23.9976 48.5 24C54.299 24 59 28.701 59 34.5C59 34.75 58.991 35 58.974 35.245C59.207 35.305 59.436 35.374 59.661 35.453C59.9575 35.0418 60.3399 34.6999 60.7815 34.451C61.2232 34.202 61.7137 34.0521 62.2191 34.0114C62.7244 33.9707 63.2326 34.0403 63.7084 34.2153C64.1842 34.3904 64.6163 34.6667 64.9748 35.0252C65.3333 35.3837 65.6096 35.8158 65.7847 36.2916C65.9597 36.7674 66.0293 37.2756 65.9886 37.7809C65.9479 38.2863 65.798 38.7768 65.549 39.2185C65.3001 39.6601 64.9582 40.0425 64.547 40.339C64.8976 41.3563 65.0394 42.4339 64.9639 43.5072C64.8884 44.5806 64.5971 45.6277 64.1075 46.5859C63.6179 47.5441 62.9401 48.3937 62.1145 49.0838C61.2889 49.7739 60.3326 50.2904 59.3028 50.6023C58.273 50.9142 57.1908 51.0152 56.1211 50.8992C55.0513 50.7832 54.016 50.4525 53.077 49.9271C52.138 49.4016 51.3146 48.6921 50.6562 47.8411C49.9978 46.99 49.5178 46.0149 49.245 44.974C48.999 44.991 48.751 45 48.5 45C43.63 45 39.533 41.684 38.347 37.186ZM18 21.5C18 22.4283 17.6313 23.3185 16.9749 23.9749C16.3185 24.6313 15.4283 25 14.5 25C13.5717 25 12.6815 24.6313 12.0251 23.9749C11.3687 23.3185 11 22.4283 11 21.5C11 20.5717 11.3687 19.6815 12.0251 19.0251C12.6815 18.3687 13.5717 18 14.5 18C15.4283 18 16.3185 18.3687 16.9749 19.0251C17.6313 19.6815 18 20.5717 18 21.5Z" fill="#FFC9DF"/>
<path d="M58.1089 32.7312L54.2126 25.0623C53.8618 24.3719 53.1912 23.9431 52.4624 23.9431C51.1486 23.9431 23.849 23.9431 22.5375 23.9431C21.8087 23.9431 21.1382 24.3719 20.7874 25.0623L16.891 32.7312C16.685 33.1366 16.7043 33.6288 16.9415 34.0152C17.1614 34.3736 17.5348 34.5874 17.9402 34.5874H21.1127V50.0141C21.1127 51.109 21.9375 51.9999 22.9515 51.9999C23.3675 51.9999 51.6328 51.9999 52.0488 51.9999C53.0627 51.9999 53.8876 51.1091 53.8876 50.0141V43.3916C53.8876 43.0437 53.6056 42.7617 53.2576 42.7617C52.9096 42.7617 52.6276 43.0436 52.6276 43.3916V50.0142C52.6276 50.4077 52.3626 50.7402 52.0487 50.7402H38.13V27.2036L41.4155 33.6699C41.7029 34.2359 42.255 34.5875 42.8561 34.5875H52.6275V40.4521C52.6275 40.8 52.9094 41.0821 53.2574 41.0821C53.6054 41.0821 53.8874 40.8001 53.8874 40.4521V34.5875H57.0599C57.4654 34.5875 57.8387 34.3736 58.0586 34.0154C58.2956 33.6287 58.315 33.1367 58.1089 32.7312ZM18.0082 33.3277C18.0082 33.3197 18.0098 33.3108 18.0142 33.3019L21.9106 25.633C22.0453 25.3678 22.2856 25.203 22.5376 25.203H36.4734C35.9919 26.1508 33.1113 31.8201 32.4615 33.0993V33.0993C32.3898 33.2402 32.2682 33.3277 32.144 33.3277C31.7886 33.3277 18.3918 33.3277 18.0082 33.3277ZM36.8701 50.7401H22.9514C22.6376 50.7402 22.3726 50.4078 22.3726 50.0142V34.5875H32.1439C32.7472 34.5875 33.2981 34.2339 33.5846 33.6699L36.8701 27.2035V50.7401ZM42.8561 33.3276C42.7319 33.3276 42.6102 33.2401 42.5387 33.0992L38.5267 25.203H52.4625C52.7145 25.203 52.9547 25.3677 53.0895 25.633L56.9859 33.3018C56.9904 33.3107 56.992 33.3196 56.992 33.3276C56.6076 33.3276 43.2116 33.3276 42.8561 33.3276Z" fill="black"/>
<path d="M37.4998 10.9586C36.0958 8.70589 32.9451 8.32544 31.0479 10.2253C30.2641 11.0102 29.8331 12.052 29.8342 13.159C29.8374 16.3578 31.9792 19.4544 35.7103 21.6547C35.8107 21.714 35.9209 21.7421 36.0297 21.7421C36.2453 21.7421 36.4553 21.6313 36.5728 21.4321C36.7495 21.1326 36.6499 20.7462 36.3502 20.5695C34.7713 19.6382 31.098 17.0518 31.0939 13.1577C31.0922 11.4228 32.6206 10.0589 34.3659 10.2939C35.9259 10.5041 36.4661 11.7297 36.5861 11.8549C37.1424 12.4353 37.9016 12.4373 38.4251 11.8375C38.5649 11.6758 39.2402 10.2613 41.0175 10.2594C42.6085 10.2594 43.9045 11.5537 43.9062 13.1446C43.91 16.8522 40.6119 19.3867 38.6456 20.5675C38.3474 20.7466 38.2508 21.1336 38.43 21.4319C38.6092 21.7302 38.996 21.8265 39.2943 21.6475C43.084 19.3716 45.1694 16.3514 45.1662 13.1433C45.1616 9.08818 39.8323 7.36205 37.4998 10.9586Z" fill="black"/>
</svg>
