<svg width="56" height="61" viewBox="0 0 56 61" fill="none" xmlns="http://www.w3.org/2000/svg">
<path d="M51 15.5C51 16.9587 50.4205 18.3576 49.3891 19.3891C48.3576 20.4205 46.9587 21 45.5 21C44.0413 21 42.6424 20.4205 41.6109 19.3891C40.5795 18.3576 40 16.9587 40 15.5C40 14.0413 40.5795 12.6424 41.6109 11.6109C42.6424 10.5795 44.0413 10 45.5 10C46.9587 10 48.3576 10.5795 49.3891 11.6109C50.4205 12.6424 51 14.0413 51 15.5ZM28.347 37.186C27.0198 38.0153 25.5424 38.5753 23.999 38.834L24 39C24 45.627 18.627 51 12 51C5.373 51 0 45.627 0 39C0 33.054 4.325 28.117 10.001 27.166L10 27C10 20.373 15.373 15 22 15C27.975 15 32.93 19.367 33.848 25.084C35.2943 24.3686 36.8865 23.9976 38.5 24C44.299 24 49 28.701 49 34.5C49 34.75 48.991 35 48.974 35.245C49.207 35.305 49.436 35.374 49.661 35.453C49.9575 35.0418 50.3399 34.6999 50.7815 34.451C51.2232 34.202 51.7137 34.0521 52.2191 34.0114C52.7244 33.9707 53.2326 34.0403 53.7084 34.2153C54.1842 34.3904 54.6163 34.6667 54.9748 35.0252C55.3333 35.3837 55.6096 35.8158 55.7847 36.2916C55.9597 36.7674 56.0293 37.2756 55.9886 37.7809C55.9479 38.2863 55.798 38.7768 55.549 39.2185C55.3001 39.6601 54.9582 40.0425 54.547 40.339C54.8976 41.3563 55.0394 42.4339 54.9639 43.5072C54.8884 44.5806 54.5971 45.6277 54.1075 46.5859C53.6179 47.5441 52.9401 48.3937 52.1145 49.0838C51.2889 49.7739 50.3326 50.2904 49.3028 50.6023C48.273 50.9142 47.1908 51.0152 46.1211 50.8992C45.0513 50.7832 44.016 50.4525 43.077 49.9271C42.138 49.4016 41.3146 48.6921 40.6562 47.8411C39.9978 46.99 39.5178 46.0149 39.245 44.974C38.999 44.991 38.751 45 38.5 45C33.63 45 29.533 41.684 28.347 37.186ZM8 21.5C8 22.4283 7.63125 23.3185 6.97487 23.9749C6.3185 24.6313 5.42826 25 4.5 25C3.57174 25 2.6815 24.6313 2.02513 23.9749C1.36875 23.3185 1 22.4283 1 21.5C1 20.5717 1.36875 19.6815 2.02513 19.0251C2.6815 18.3687 3.57174 18 4.5 18C5.42826 18 6.3185 18.3687 6.97487 19.0251C7.63125 19.6815 8 20.5717 8 21.5Z" fill="#FFC9DF"/>
<path d="M11.8855 21.1988C9.00138 21.1988 6.65502 23.5453 6.65502 26.4294C6.65502 29.3134 9.00138 31.6599 11.8855 31.6599C14.7697 31.6599 17.1161 29.3134 17.1161 26.4294C17.1161 23.5453 14.7697 21.1988 11.8855 21.1988ZM11.8855 29.8723C9.98716 29.8723 8.44285 28.3279 8.44285 26.4296C8.44285 24.5313 9.98727 22.9869 11.8855 22.9869C13.7838 22.9869 15.3282 24.5313 15.3282 26.4296C15.3282 28.3279 13.7839 29.8723 11.8855 29.8723Z" fill="black"/>
<path d="M27.8691 21.199C24.2425 21.199 21.2918 24.1495 21.2918 27.7763C21.2918 31.403 24.2423 34.3536 27.8691 34.3536C31.4959 34.3536 34.4463 31.403 34.4463 27.7763C34.4463 24.1495 31.4957 21.199 27.8691 21.199ZM27.8691 32.5657C25.2282 32.5657 23.0795 30.4171 23.0795 27.7762C23.0795 25.1352 25.2281 22.9866 27.8691 22.9866C30.5101 22.9866 32.6586 25.1352 32.6586 27.7762C32.6586 30.4171 30.51 32.5657 27.8691 32.5657Z" fill="black"/>
<path d="M43.8526 21.1988C40.9685 21.1988 38.6221 23.5453 38.6221 26.4294C38.6221 29.3134 40.9686 31.6599 43.8526 31.6599C46.7367 31.6599 49.083 29.3134 49.083 26.4294C49.083 23.5453 46.7366 21.1988 43.8526 21.1988ZM43.8526 29.8723C41.9542 29.8723 40.4099 28.3279 40.4099 26.4296C40.4099 24.5313 41.9545 22.9869 43.8526 22.9869C45.7509 22.9869 47.2953 24.5313 47.2953 26.4296C47.2953 28.3279 45.7508 29.8723 43.8526 29.8723Z" fill="black"/>
<path d="M45.6515 33.5708C45.645 33.5708 45.6386 33.5704 45.6322 33.5704H42.0733C42.0669 33.5704 42.0604 33.5708 42.054 33.5708C38.5128 33.5789 35.6245 35.7912 35.0669 38.6235C33.5893 37.8193 31.9229 37.4124 30.2013 37.4124C28.0403 37.4124 26.7015 37.3981 25.7405 37.4124C23.949 37.4124 22.3018 37.7361 20.6716 38.6235C20.1173 35.8085 17.2458 33.5789 13.6844 33.5708C13.678 33.5708 13.6716 33.5704 13.6651 33.5704H10.1063C10.0998 33.5704 10.0934 33.5708 10.087 33.5708C6.18273 33.5797 3 36.2892 3 39.6294V49.8674C3 51.039 3.95313 51.992 5.12464 51.992H16.5016V58.4929C16.5016 59.8753 17.6262 60.9999 19.0087 60.9999H25.7837C26.2773 60.9999 26.6776 60.5998 26.6776 60.106C26.6776 59.6123 26.2774 59.2121 25.7837 59.2121H19.0087C18.6121 59.2121 18.2895 58.8894 18.2895 58.4929V45.0753C18.2895 42.5001 20.2933 40.4848 22.7514 39.6519L26.6377 45.074C26.912 45.4568 27.3725 45.6853 27.8693 45.6853C28.3663 45.6853 28.8268 45.4568 29.101 45.074L32.9872 39.6519C35.4832 40.4977 37.4491 42.541 37.4491 45.0752V58.493C37.4491 58.8896 37.1265 59.2122 36.7299 59.2122H29.955C29.4613 59.2122 29.0611 59.6123 29.0611 60.1061C29.0611 60.5998 29.4613 61 29.955 61H36.7299C38.1122 61 39.2369 59.8754 39.2369 58.493V51.9921H50.6139C51.7856 51.9921 52.7388 51.039 52.7388 49.8675V39.6295C52.7385 36.3008 49.5694 33.5797 45.6515 33.5708ZM10.106 35.3582H13.6649C13.7577 35.3582 13.8505 35.3602 13.9429 35.364L11.8855 38.2345L9.8282 35.364C9.92042 35.3602 10.0131 35.3582 10.106 35.3582ZM16.5014 45.0755V50.2045H5.1244C4.93854 50.2045 4.78747 50.0533 4.78747 49.8676V39.6296C4.78747 37.906 6.06609 36.4185 7.90098 35.7442L10.7735 39.7518C11.0226 40.0991 11.4383 40.3067 11.8854 40.3067C12.3325 40.3067 12.7483 40.0992 12.9973 39.7518L15.8698 35.7442C17.6211 36.3878 18.9833 37.7778 18.9833 39.7977C17.2962 41.2996 16.5014 43.1955 16.5014 45.0755ZM27.8691 43.724L24.6591 39.2454C24.9583 39.2206 25.3029 39.2071 25.7427 39.2002H30.201C30.3384 39.2002 30.4756 39.204 30.6122 39.2102C30.6544 39.2121 30.696 39.2155 30.738 39.218C30.8329 39.2237 30.9278 39.2302 31.0222 39.2389C31.0414 39.2407 31.0603 39.243 31.0794 39.2449L27.8691 43.724ZM42.0732 35.3582H45.6321C45.7249 35.3582 45.8177 35.3602 45.91 35.364L43.8527 38.2345L41.7954 35.364C41.8876 35.3602 41.9803 35.3582 42.0732 35.3582ZM50.6136 50.2045H39.2366V45.0755C39.2366 43.1697 38.4218 41.2817 36.7546 39.7977C36.7546 37.7877 38.1055 36.3921 39.868 35.7442L42.7405 39.7518C43.271 40.4922 44.4347 40.4907 44.9645 39.7518L47.837 35.7442C49.6719 36.4185 50.9505 37.906 50.9505 39.6296V49.8676C50.9505 50.0533 50.7994 50.2045 50.6136 50.2045Z" fill="black"/>
<path d="M23.6965 1.83334C25.7402 2.10867 26.438 3.70778 26.6135 3.89078C27.4056 4.71726 28.4497 4.65793 29.1413 3.86553C29.333 3.64357 30.2157 1.79057 32.5434 1.78807C34.3033 1.78807 35.8562 3.03583 36.2358 4.75479C36.3423 5.23684 36.8192 5.54208 37.3014 5.43485C37.7833 5.32846 38.0879 4.8513 37.9815 4.36937C36.9626 -0.244953 30.7479 -1.75911 27.8693 2.55593C25.9618 -0.401623 21.7805 -0.883905 19.254 1.64593C18.2018 2.69949 17.6231 4.09821 17.6247 5.58461C17.6307 11.2979 22.6186 15.6869 27.2855 17.8898C27.6533 18.0628 28.0909 18.0715 28.4781 17.8879C31.8706 16.2781 36.0224 13.108 37.5006 9.03862C37.6691 8.57457 37.4296 8.0619 36.9655 7.89332C36.5016 7.72509 35.9887 7.96433 35.8202 8.42838C34.5502 11.9247 30.9183 14.7128 27.8795 16.1924C23.7575 14.2006 19.4175 10.3962 19.4125 5.58294C19.4102 3.32439 21.3988 1.52453 23.6965 1.83334Z" fill="black"/>
</svg>
