<svg width="181" height="120" viewBox="0 0 181 120" fill="none" xmlns="http://www.w3.org/2000/svg">
<g clip-path="url(#clip0)">
<path d="M2.55664 113.496L6.05904 108.895L19.5471 89.2734C20.3045 88.1908 20.7421 86.917 20.81 85.5976C20.8765 83.9003 20.2987 82.5915 16.873 86.9371C11.2487 94.0689 2.55664 113.496 2.55664 113.496Z" stroke="#FFBBE0" stroke-width="4" stroke-linecap="round" stroke-linejoin="round"/>
<path d="M7.1582 108.895C7.1582 108.895 14.8277 119.12 20.9633 107.361C26.199 96.3182 36.6142 78.1691 36.7369 74.7336C34.7684 75.1528 28.1215 77.709 32.2119 88.4451C32.7232 89.7437 34.2571 91.0013 35.2797 91.0013C38.9661 91.0013 44.4831 73.619 42.4379 73.1078C40.3927 72.5966 31.7006 82.8214 44.4831 82.3102C57.2655 81.7989 67.4915 55.7255 64.4237 49.5906C61.3559 43.4557 53.1752 77.1977 59.3107 74.1303C65.4463 71.0628 73.6271 65.4392 73.6271 65.4392C79.2514 60.3881 60.1442 105.214 68.0028 108.384C72.6045 109.917 109.929 55.2143 106.35 53.1693C103.308 48.0569 75.8768 101.415 97.6582 94.0688C103.518 90.1322 112.123 79.6057 116.065 75.664C117.029 74.6489 118.284 73.9567 119.657 73.6821C121.03 73.4075 122.454 73.5641 123.734 74.1303C123.734 74.1303 114.531 70.5516 110.441 91.0013C109.582 95.2855 119.133 83.3327 121.372 82.8828C124.215 84.1149 125.253 102.581 138.705 86.2212C144.007 80.5413 146.032 66.9729 148.277 59.8155L138.562 94.58C138.562 94.58 152.5 69.3962 154.924 66.9729C155.435 66.4616 159.525 64.9279 159.014 70.0403C157.853 100.393 170.902 81.1292 179.977 73.619" stroke="#FFBBE0" stroke-width="4" stroke-linecap="round" stroke-linejoin="round"/>
<path d="M1.53394 117.586C1.53394 117.586 21.9859 24.5396 34.2571 1.53369" stroke="#FFBBE0" stroke-width="6" stroke-linecap="round" stroke-linejoin="round"/>
<path d="M14.2295 64.5239C14.2295 64.5239 38.3475 21.9834 35.2797 2.55615" stroke="#FFBBE0" stroke-width="4" stroke-linecap="round" stroke-linejoin="round"/>
<path d="M62.1228 73.9613V74.4214H55.0515V73.9613H56.7542L52.3314 64.851L50.2044 67.5503V73.9613H52.1525V74.4214H44.9482V73.9613H46.8963V55.986H44.9482V55.5259H52.1525V55.986H50.2044V66.8755L55.0771 60.6536C56.3656 59.0074 56.7439 58.0668 56.7439 57.2539C56.7439 56.2979 56.2326 55.986 55.6906 55.986H55.4554V55.5259H61.6422V55.986H61.5962C60.1492 55.986 58.0784 57.5197 55.3788 60.9502L54.6476 61.8857L60.4764 73.9613H62.1228Z" fill="black"/>
<path d="M68.3148 73.9613H70.273V74.4214H63.0586V73.9613H65.0118V55.986H63.0586V55.5259H70.273V55.986H68.3148V73.9613Z" fill="black"/>
<path d="M86.9925 64.9737C86.9925 70.0605 83.9247 74.9327 79.2156 74.9327C74.5066 74.9327 71.4541 70.0605 71.4541 64.9737C71.4541 59.8868 74.5219 55.0146 79.2156 55.0146C83.9094 55.0146 86.9925 59.8868 86.9925 64.9737ZM79.2156 55.4748C76.0456 55.4748 75.0179 59.7539 75.0179 64.9737C75.0179 70.1935 76.0405 74.4777 79.2156 74.4777C82.3908 74.4777 83.4185 70.1986 83.4185 64.9737C83.4185 59.7488 82.3857 55.4748 79.2156 55.4748Z" fill="black"/>
<path d="M90.8887 58.2818C90.8887 60.0916 92.1465 60.838 95.337 62.4945C98.5275 64.1509 100.573 65.5006 100.573 68.9975C100.573 72.6273 98.2309 74.9484 95.2245 74.9484C94.4767 74.9522 93.737 74.7937 93.0564 74.4839C92.3758 74.1741 91.7706 73.7203 91.2824 73.1539C90.8702 73.2626 90.4966 73.4845 90.2038 73.7943C89.9111 74.1042 89.7109 74.4898 89.6258 74.9075H89.2781L89.0173 67.5813H89.4008C89.682 71.7378 92.2334 74.4934 95.1376 74.4934C95.5945 74.5152 96.0508 74.4403 96.4768 74.2736C96.9027 74.1068 97.2886 73.8519 97.6091 73.5256C97.9297 73.1993 98.1776 72.8089 98.3368 72.3801C98.4959 71.9513 98.5627 71.4937 98.5326 71.0374C98.5326 68.839 97.1419 67.9699 93.8696 66.4617C91.2364 65.2347 89.2219 63.8033 89.2219 60.5262C89.2219 57.4076 91.0932 55.0457 93.9718 55.0457C94.6457 55.0499 95.3115 55.1934 95.9274 55.467C96.5433 55.7406 97.096 56.1384 97.5509 56.6356C97.9588 56.5681 98.3375 56.381 98.6388 56.0979C98.9402 55.8148 99.1506 55.4485 99.2433 55.0457H99.5808L99.7802 62.1059H99.4223C99.1768 58.7726 97.2032 55.4956 93.89 55.4956C91.9317 55.4751 90.8887 56.5947 90.8887 58.2818Z" fill="black"/>
<path d="M119.22 73.9615V74.4217H112.154V73.9615H113.856L109.418 64.8512L107.291 67.5506V73.9615H109.249V74.4217H102.045V73.9615H103.998V55.9862H102.045V55.5261H109.26V55.9862H107.301V66.8757L112.174 60.6539C113.463 59.0077 113.846 58.067 113.846 57.2541C113.846 56.2981 113.335 55.9862 112.793 55.9862H112.557V55.5261H118.739V55.9862H118.693C117.251 55.9862 115.175 57.52 112.476 60.9504L111.75 61.886L117.599 73.9615H119.22Z" fill="black"/>
<path d="M25.3554 85.1322L27.4313 83.1282H28.1215L25.8207 85.3214L28.2238 87.6987H27.4875L25.3554 85.577H25.1764V87.6987H24.6089V83.1282H25.1764V85.1322H25.3554Z" fill="black"/>
<path d="M30.1667 85.4132C30.1667 83.9511 30.9797 83.0513 32.2835 83.0513C33.5873 83.0513 34.4054 83.9511 34.4054 85.4132C34.4054 86.8754 33.5873 87.7752 32.2835 87.7752C30.9797 87.7752 30.1667 86.8703 30.1667 85.4132ZM33.8174 85.4132C33.8174 84.2527 33.2448 83.5523 32.2835 83.5523C31.3223 83.5523 30.7496 84.2527 30.7496 85.4132C30.7496 86.5737 31.3223 87.269 32.2835 87.269C33.2448 87.269 33.8072 86.5686 33.8072 85.4132H33.8174Z" fill="black"/>
<path d="M41.0983 85.4133C41.0983 86.8346 40.3109 87.7753 39.1349 87.7753C38.8082 87.7913 38.4842 87.7099 38.2038 87.5415C37.9235 87.3731 37.6994 87.1253 37.5601 86.8295H37.5089V89.1863H36.9414V83.1281H37.4834V84.0637H37.5345C37.6723 83.7556 37.8972 83.4946 38.1816 83.3129C38.466 83.1312 38.7974 83.0367 39.1349 83.0412C40.316 83.0514 41.0983 83.9921 41.0983 85.4133ZM40.5103 85.4133C40.5103 84.2733 39.9325 83.5524 39.0122 83.5524C38.0918 83.5524 37.4783 84.2937 37.4783 85.4133C37.4783 86.533 38.0816 87.2691 39.0122 87.2691C39.9427 87.2691 40.5103 86.5534 40.5103 85.4133Z" fill="black"/>
<path d="M47.4334 86.5686C47.2907 86.9545 47.0241 87.2822 46.6753 87.5005C46.3265 87.7188 45.9153 87.8154 45.5058 87.7752C44.2224 87.7752 43.4197 86.86 43.4197 85.4132C43.4197 83.9664 44.2326 83.0513 45.5007 83.0513C46.7687 83.0513 47.505 83.9153 47.505 85.3161V85.5615H44.0026C44.0332 86.584 44.6161 87.2537 45.5365 87.2537C45.8052 87.283 46.0766 87.231 46.3155 87.1043C46.5543 86.9776 46.7496 86.782 46.8761 86.5431L47.4334 86.5686ZM44.0077 85.1014H46.9119C46.9318 84.9046 46.9104 84.7058 46.8489 84.5178C46.7874 84.3298 46.6871 84.1568 46.5547 84.0099C46.4222 83.863 46.2604 83.7455 46.0798 83.6649C45.8991 83.5843 45.7036 83.5425 45.5058 83.5421C45.3036 83.5412 45.1033 83.5814 44.9171 83.6602C44.7309 83.739 44.5626 83.8549 44.4225 84.0007C44.2824 84.1465 44.1734 84.3192 44.1021 84.5084C44.0308 84.6976 43.9987 84.8994 44.0077 85.1014Z" fill="black"/>
<path d="M50.0564 87.6985V83.128H50.6188V86.8089H50.6751L53.298 83.128H53.8656V87.6985H53.298V84.0124H53.2469L50.6188 87.6985H50.0564ZM51.0534 81.1699C51.0444 81.2866 51.0595 81.4038 51.0979 81.5143C51.1363 81.6248 51.1972 81.7262 51.2766 81.8121C51.3561 81.898 51.4525 81.9665 51.5597 82.0134C51.6669 82.0602 51.7826 82.0844 51.8996 82.0844C52.0166 82.0844 52.1324 82.0602 52.2396 82.0134C52.3468 81.9665 52.4432 81.898 52.5226 81.8121C52.6021 81.7262 52.6629 81.6248 52.7013 81.5143C52.7398 81.4038 52.7549 81.2866 52.7458 81.1699H53.2571C53.2358 81.5182 53.0824 81.8452 52.8283 82.0842C52.5741 82.3233 52.2383 82.4564 51.8894 82.4564C51.5405 82.4564 51.2047 82.3233 50.9505 82.0842C50.6964 81.8452 50.543 81.5182 50.5217 81.1699H51.0534Z" fill="black"/>
<path d="M59.8578 84.4725C59.7725 84.1896 59.5933 83.9443 59.3498 83.7769C59.1062 83.6096 58.8129 83.5304 58.5182 83.5523C57.5927 83.5523 56.9843 84.268 56.9843 85.3978C56.9843 86.5277 57.5774 87.269 58.5182 87.269C58.8089 87.3005 59.1015 87.2293 59.3452 87.0678C59.5889 86.9062 59.7685 86.6645 59.8527 86.3845H60.4305C60.2873 87.2025 59.5919 87.7751 58.5233 87.7751C57.24 87.7751 56.4219 86.8498 56.4219 85.3978C56.4219 83.9459 57.2348 83.0512 58.5182 83.0512C58.9563 83.013 59.3932 83.1365 59.7464 83.3984C60.0996 83.6602 60.3448 84.0423 60.4356 84.4725H59.8578Z" fill="black"/>
<path d="M63.6823 85.1322L65.7582 83.1282H66.4689L64.168 85.3214L66.5711 87.6987H65.8247L63.6925 85.577H63.5136V87.6987H62.946V83.1282H63.5136V85.1322H63.6823Z" fill="black"/>
<path d="M68.5142 86.4359C68.5142 85.6384 69.1175 85.1732 70.1963 85.1016L71.6535 85.0096V84.5648C71.6535 83.9155 71.2496 83.5423 70.4929 83.5423C69.8538 83.5423 69.3885 83.8133 69.276 84.2529H68.7033C68.8107 83.527 69.5316 83.0464 70.5133 83.0464C71.6075 83.0464 72.2262 83.6088 72.2262 84.5801V87.714H71.6791V86.9114H71.628C71.4775 87.1834 71.2544 87.4082 70.9835 87.5608C70.7127 87.7134 70.4047 87.7877 70.0941 87.7754C69.1737 87.7754 68.5142 87.2539 68.5142 86.4359ZM71.6535 85.9963V85.485L70.273 85.5821C69.4805 85.6333 69.097 85.9247 69.097 86.4461C69.097 86.9676 69.5521 87.305 70.181 87.305C70.3644 87.3196 70.549 87.297 70.7234 87.2385C70.8979 87.18 71.0588 87.0868 71.1963 86.9645C71.3339 86.8423 71.4453 86.6935 71.5239 86.5271C71.6024 86.3607 71.6465 86.1801 71.6535 85.9963Z" fill="black"/>
<path d="M77.6308 85.971H76.6951L75.4271 87.699H74.7471L76.0816 85.8892C75.7625 85.8551 75.4673 85.704 75.253 85.4652C75.0386 85.2263 74.9204 84.9166 74.9209 84.5957C74.9209 83.6908 75.5805 83.1387 76.6082 83.1387H78.1983V87.7092H77.6308V85.971ZM77.6308 85.5006V83.5988H76.6082C75.9231 83.5988 75.4885 83.9669 75.4885 84.5702C75.4885 85.1734 75.9282 85.5006 76.6082 85.5006H77.6308Z" fill="black"/>
<path d="M85.3871 85.1322L87.4323 83.1282H88.1328L85.8371 85.3214L88.2402 87.6987H87.4886L85.3871 85.577H85.2082V87.6987H84.6406V83.1282H85.2082V85.1322H85.3871Z" fill="black"/>
<path d="M90.1677 85.413C90.1677 83.9508 90.9807 83.051 92.2845 83.051C93.5883 83.051 94.4064 83.9508 94.4064 85.413C94.4064 86.8751 93.5883 87.7749 92.2845 87.7749C90.9807 87.7749 90.1677 86.87 90.1677 85.413ZM93.8184 85.413C93.8184 84.2525 93.2457 83.552 92.2845 83.552C91.3233 83.552 90.7506 84.2525 90.7506 85.413C90.7506 86.5735 91.3233 87.2688 92.2845 87.2688C93.2457 87.2688 93.8184 86.5684 93.8184 85.413Z" fill="black"/>
<path d="M100.164 84.4727C100.078 84.1899 99.8992 83.9445 99.6556 83.7772C99.4121 83.6099 99.1188 83.5306 98.8241 83.5525C97.8986 83.5525 97.2902 84.2682 97.2902 85.3981C97.2902 86.5279 97.8833 87.2692 98.8241 87.2692C99.1148 87.3007 99.4074 87.2295 99.6511 87.068C99.8948 86.9065 100.074 86.6648 100.159 86.3848H100.726C100.583 87.2028 99.8876 87.7754 98.819 87.7754C97.5356 87.7754 96.7175 86.85 96.7175 85.3981C96.7175 83.9462 97.5305 83.0515 98.8139 83.0515C99.2519 83.0133 99.6888 83.1368 100.042 83.3986C100.395 83.6604 100.64 84.0425 100.731 84.4727H100.164Z" fill="black"/>
<path d="M103.242 87.6987V83.1282H103.922L105.757 86.9267H105.808L107.629 83.1282H108.288V87.6987H107.721V84.1455H107.654L105.992 87.6118H105.548L103.865 84.1455H103.794V87.6987H103.242Z" fill="black"/>
<path d="M114.853 86.5689C114.712 86.9548 114.447 87.2829 114.099 87.5014C113.751 87.7198 113.34 87.8162 112.931 87.7754C111.647 87.7754 110.84 86.8603 110.84 85.4135C110.84 83.9666 111.658 83.0515 112.926 83.0515C114.194 83.0515 114.93 83.9155 114.93 85.3163V85.5617H111.428C111.458 86.5842 112.041 87.2539 112.961 87.2539C113.23 87.2833 113.502 87.2312 113.741 87.1045C113.979 86.9778 114.175 86.7823 114.301 86.5433L114.853 86.5689ZM111.433 85.1016H114.337C114.356 84.9041 114.334 84.7048 114.271 84.5165C114.209 84.3281 114.108 84.1549 113.974 84.008C113.841 83.8612 113.678 83.7438 113.497 83.6636C113.315 83.5834 113.119 83.5421 112.921 83.5423C112.719 83.5428 112.52 83.584 112.335 83.6635C112.15 83.7429 111.983 83.859 111.844 84.0046C111.705 84.1503 111.597 84.3226 111.526 84.5111C111.456 84.6996 111.424 84.9005 111.433 85.1016Z" fill="black"/>
<path d="M120.667 83.5985H119.082V87.6885H118.514V83.5985H116.924V83.1282H120.667V83.5985Z" fill="black"/>
<path d="M123.05 87.6987V83.1282H123.617V86.8091H123.673L126.291 83.1282H126.859V87.6987H126.291V84.0126H126.24L123.617 87.6987H123.05Z" fill="black"/>
<path d="M130.381 85.1322L132.457 83.1282H133.158L130.857 85.3214L133.26 87.6987H132.514L130.381 85.577H130.197V87.6987H129.63V83.1282H130.197V85.1322H130.381Z" fill="black"/>
<path d="M135.223 86.4359C135.223 85.6384 135.827 85.1732 136.9 85.1016L138.363 85.0096V84.5648C138.363 83.9155 137.959 83.5423 137.202 83.5423C136.563 83.5423 136.098 83.8133 135.985 84.2529H135.407C135.515 83.527 136.241 83.0464 137.217 83.0464C138.317 83.0464 138.935 83.6088 138.935 84.5801V87.714H138.388V86.9114H138.337C138.187 87.1834 137.964 87.4082 137.693 87.5608C137.422 87.7134 137.114 87.7877 136.803 87.7754C135.883 87.7754 135.223 87.2539 135.223 86.4359ZM138.363 85.9963V85.485L136.982 85.5821C136.19 85.6333 135.806 85.9247 135.806 86.4461C135.806 86.9676 136.261 87.305 136.89 87.305C137.074 87.3189 137.258 87.2958 137.432 87.237C137.606 87.1782 137.767 87.085 137.904 86.9629C138.041 86.8407 138.153 86.6922 138.232 86.5262C138.31 86.3601 138.355 86.1799 138.363 85.9963Z" fill="black"/>
</g>
<defs>
<clipPath id="clip0">
<rect width="181" height="119.12" fill="white"/>
</clipPath>
</defs>
</svg>
